<?xml version="1.0" encoding="UTF-8" standalone="no"?>
<svg width="40px" height="40px" viewBox="0 0 40 40" version="1.1" xmlns="http://www.w3.org/2000/svg" xmlns:xlink="http://www.w3.org/1999/xlink">
    <!-- Generator: Sketch 3.6.1 (26313) - http://www.bohemiancoding.com/sketch -->
    <title>1459680825_youtube_video_social</title>
    <desc>Created with Sketch.</desc>
    <defs></defs>
    <g id="Page-1" stroke="none" stroke-width="1" fill="none" fill-rule="evenodd">
        <g id="1459680825_youtube_video_social">
            <g id="Page-1">
                <g id="youtube_video_social">
                    <path d="M32.6929498,18.3333333 L7.30659578,18.3333333 C3.27074885,18.3333333 0,21.3697053 0,25.4592272 L0,32.5941378 C0,36.6832088 3.27074885,40 7.30659578,40 L32.6929498,40 C36.7278882,40 40,36.6836597 40,32.5941378 L40,25.5155815 C40,21.4260597 36.7278882,18.3333333 32.6929498,18.3333333 L32.6929498,18.3333333 L32.6929498,18.3333333 Z" id="Shape" fill="#E74C3C"></path>
                    <path d="M12.284912,24.4415443 L9.83710155,24.4415443 L9.83710155,35.7537673 L7.47083763,35.7537673 L7.47083763,24.4415443 L5.02349853,24.4415443 L5.02349853,22.5164795 L12.284912,22.5164795 L12.284912,24.4415443 L12.284912,24.4415443 Z M18.55504,36.2369645 L16.4560414,36.2369645 L16.4560414,35.1667212 C16.0662206,35.5628057 15.665087,35.8644822 15.244156,36.0687467 C14.8251105,36.2811647 14.4192632,36.3815805 14.0247288,36.3815805 C13.537335,36.3815805 13.1757963,36.2369645 12.9269143,35.9442998 C12.6836888,35.6520642 12.5583051,35.219933 12.5583051,34.6354617 L12.5583051,26.4704578 L14.6573037,26.4704578 L14.6573037,33.9630193 C14.6573037,34.1938898 14.7030264,34.3608203 14.7874011,34.4625235 C14.878375,34.5693762 15.022142,34.6178675 15.2191736,34.6178675 C15.3704825,34.6178675 15.5679854,34.5504945 15.803669,34.413603 C16.0421809,34.275424 16.2575958,34.1007692 16.4550987,33.8887803 L16.4550987,26.4704578 L18.5540973,26.4704578 L18.5540973,36.2369645 L18.55504,36.2369645 L18.55504,36.2369645 Z M27.3502828,33.9522912 C27.3502828,34.6418987 27.186247,35.1718708 26.8567612,35.5422075 C26.5296323,35.9116862 26.0516658,36.3622697 25.4304037,36.3622697 C25.0170145,36.3622697 24.0620243,36.2931802 23.7424373,36.1498517 C23.4214362,36.0086688 23.1188183,35.7902432 22.844954,35.4885667 L22.844954,36.2365355 L20.722387,36.2365355 L20.722387,22.7310432 L22.844954,22.7310432 L22.844954,27.2626267 C23.1291885,26.9673872 23.4294495,26.7395207 23.7438515,26.585464 C24.0648527,26.4284033 24.9760057,26.352877 25.3021918,26.352877 C25.967291,26.352877 26.4744823,26.2902243 26.8242368,26.706907 C27.1758768,27.1235895 27.3498113,27.7333793 27.3498113,28.5328433 L27.3498113,33.9522912 L27.3502828,33.9522912 L27.3502828,33.9522912 Z M34.9850192,31.4277357 L30.969441,31.4277357 L30.969441,33.2678332 C30.969441,33.7814985 31.0363752,34.1381033 31.1740145,34.3376475 C31.3144818,34.5376207 31.5511083,34.6346035 31.885779,34.6346035 C32.2345908,34.6346035 32.477345,34.5500653 32.6163985,34.3814183 C32.7526235,34.211484 32.8252142,33.8424347 32.8252142,33.2674042 L32.8252142,32.8228283 L34.9854905,32.8228283 L34.9854905,33.3240488 C34.9854905,34.3247737 34.724353,35.0791793 34.1935935,35.5881242 C33.6703757,36.0910613 32.8846065,36.3425298 31.8376997,36.3425298 C30.8968505,36.3425298 30.1553897,36.0756127 29.6161455,35.5379163 C29.0787867,35.0053693 28.8049223,34.265125 28.8049223,33.3240488 L28.8049223,28.9370812 C28.8049223,28.0929878 29.1028265,27.39866 29.6981633,26.8661132 C30.2925575,26.3335662 31.0542872,26.0679365 31.996079,26.0679365 C32.9576683,26.0679365 33.696301,26.3146847 34.2124482,26.808181 C34.728124,27.3029647 34.9859618,28.0118828 34.9859618,28.9375103 L34.9859618,31.4277357 L34.9850192,31.4277357 L34.9850192,31.4277357 Z M31.9055765,27.7758628 C31.569963,27.7758628 31.3328652,27.863834 31.18627,28.046213 C31.038732,28.2170057 30.969441,28.511387 30.969441,28.9212035 L30.969441,29.9081962 L32.8252142,29.9081962 L32.8252142,28.9212035 C32.8252142,28.511387 32.7502667,28.2170057 32.6036715,28.046213 C32.4613185,27.863834 32.2246922,27.7758628 31.9055765,27.7758628 L31.9055765,27.7758628 Z M23.7235827,27.9037428 C23.5741592,27.9037428 23.4242643,27.9333525 23.2781405,27.9981508 C23.1320167,28.0608033 22.9882497,28.1633648 22.8454253,28.2968233 L22.8454253,34.3809893 C23.0141748,34.5380498 23.1815102,34.6590637 23.3431892,34.7285823 C23.5053397,34.7959553 23.6717323,34.8337185 23.8494377,34.8337185 C24.107747,34.8337185 24.8845603,34.764629 25.0057018,34.6247335 C25.1249577,34.4865545 25.1871782,34.265125 25.1871782,33.9527203 L25.1871782,28.9079005 C25.1871782,28.5766143 25.1155303,28.3277205 24.9665783,28.1569278 C24.8138553,27.98871 24.0059317,27.9037428 23.7235827,27.9037428 L23.7235827,27.9037428 Z" id="youtube" fill="#ECF0F1"></path>
                    <path d="M26.6307993,16.6666667 C27.0691262,16.6666667 27.5204957,16.5409868 27.9853735,16.2988009 C28.453978,16.0534041 28.9025527,15.6942533 29.3292342,15.2254767 L29.3292342,16.4983291 L31.6666667,16.4983291 L31.6666667,5 L29.3292342,5 L29.3292342,13.7287858 C29.1130985,13.9787694 28.8718092,14.1838019 28.6109558,14.3470939 C28.3473077,14.5085512 28.1293087,14.5883625 27.9578908,14.5883625 C27.7389603,14.5883625 27.5787218,14.527816 27.4836967,14.4039709 C27.3858767,14.2828779 27.3323085,14.0865605 27.3323085,13.8163947 L27.3323085,5 L25,5 L25,14.6103794 C25,15.2956556 25.1378797,15.8080073 25.4089808,16.1474346 C25.6838085,16.4919075 26.0876653,16.6666667 26.6307993,16.6666667 L26.6307993,16.6666667 Z M19.9828213,16.6666667 C21.0263633,16.6666667 21.8454385,16.3955549 22.4432533,15.8555463 C23.0360292,15.3119937 23.3333333,14.5708662 23.3333333,13.620203 L23.3333333,7.8821132 C23.3333333,7.03732533 23.0291578,6.34094015 22.4258458,5.8044755 C21.8161203,5.26933982 21.0378158,5 20.0868092,5 C19.0432672,5 18.2104492,5.25472103 17.5929362,5.76416312 C16.9754232,6.2736052 16.6666667,6.9562576 16.6666667,7.81965117 L16.6666667,13.5763467 C16.6666667,14.520808 16.9680937,15.2681374 17.5700313,15.8280807 C18.1728853,16.385809 18.9773013,16.6666667 19.9828213,16.6666667 L19.9828213,16.6666667 Z M19.1670557,7.53121045 C19.1670557,7.27340548 19.2417347,7.06612273 19.3887592,6.90369615 C19.5392843,6.74457477 19.7318163,6.66666667 19.9694672,6.66666667 C20.2281213,6.66666667 20.4366005,6.74457477 20.5956827,6.90369615 C20.7539868,7.06612273 20.8333333,7.27340548 20.8333333,7.53121045 L20.8333333,13.9801122 C20.8333333,14.2964663 20.7551537,14.5471887 20.5987942,14.7289743 C20.4428238,14.9107598 20.2335667,15 19.9690782,15 C19.7115908,15 19.5124465,14.9135928 19.374368,14.7322795 C19.2362893,14.5542712 19.1666667,14.3054375 19.1666667,13.9801122 L19.1666667,7.53121045 L19.1670557,7.53121045 L19.1670557,7.53121045 Z M11.2919549,16.6666667 L13.7758065,16.6666667 L13.7758065,9.21098947 L16.6666667,0 L14.1423342,0 L12.6049422,6.2922618 L12.4487389,6.2922618 L10.8356654,1.64541473e-15 L8.33333333,1.64541473e-15 L11.2915149,9.50415902 L11.2915149,16.6666667 L11.2919549,16.6666667 L11.2919549,16.6666667 Z" id="Path" fill="#2C3E50"></path>
                </g>
            </g>
        </g>
    </g>
</svg>